
    <svg className="branding" width="75px" height="71px" viewBox="0 0 75 71" version="1.1" xmlns="http://www.w3.org/2000/svg">
        <g id="Symbols" stroke="none" strokeWidth="1" fill="none" fillRule="evenodd">
            <g id="Branding" fill="#131313">
                <path d="M14.9436349,71 C6.3760141,71 0,64.538282 0,56.5304949 C0,48.5623388 6.3760141,42.1005921 14.9436349,42.1005921 L16.4576919,42.1005921 C24.8659147,42.1005921 31.3615177,48.5623388 31.3615177,56.5304949 C31.3615177,64.538282 24.8659147,71 16.4576919,71 L14.9436349,71 Z M47.0673219,70.2729972 L47.0673219,42.1640606 L60.549363,42.1640606 C68.9856611,42.1640606 75,47.946373 75,56.2183978 C75,65.0927584 68.9856611,70.2729972 60.549363,70.2729972 L47.0673219,70.2729972 Z M14.6246362,64.0627887 L16.7766905,64.0627887 C24.1886894,64.0627887 30.3254313,60.6929593 30.3254313,56.5304949 C30.3254313,52.4076737 24.1886894,49.0380655 16.7766905,49.0380655 L14.6246362,49.0380655 C7.17279129,49.0380655 1.03608649,52.4076737 1.03608649,56.5304949 C1.03608649,60.6929593 7.17279129,64.0627887 14.6246362,64.0627887 Z M48.2378623,63.2458286 L60.549363,63.2458286 C66.1600971,63.2458286 73.9504682,61.3984849 73.9504682,56.1782709 C73.9504682,51.0383722 66.4426523,49.1912291 60.549363,49.1912291 L48.2378623,49.1912291 L48.2378623,63.2458286 Z M0.506443227,30.5057902 L0.506443227,0.678745768 L14.8126082,0.678745768 C23.7646096,0.678745768 30.1466866,6.81457696 30.1466866,15.592268 C30.1466866,25.0091146 23.7646096,30.5057902 14.8126082,30.5057902 L0.506443227,30.5057902 Z M57.409995,30.4816616 C48.3732966,30.4816616 41.6483,23.6660561 41.6483,15.2198495 C41.6483,6.81544172 48.3732966,0 57.409995,0 L59.0070971,0 C67.8756662,0 74.7268739,6.81544172 74.7268739,15.2198495 C74.7268739,23.6660561 67.8756662,30.4816616 59.0070971,30.4816616 L57.409995,30.4816616 Z M57.07386,23.1644264 L59.3434955,23.1644264 C67.1612888,23.1644264 73.6341059,19.6102072 73.6341059,15.2198495 C73.6341059,10.871307 67.1612888,7.3172354 59.3434955,7.3172354 L57.07386,7.3172354 C49.2140334,7.3172354 42.7410681,10.871307 42.7410681,15.2198495 C42.7410681,19.6102072 49.2140334,23.1644264 57.07386,23.1644264 Z M1.74869235,23.0490291 L14.8126082,23.0490291 C20.7663336,23.0490291 29.0330915,21.0891033 29.0330915,15.5497807 C29.0330915,10.0956825 21.066161,8.13550688 14.8126082,8.13550688 L1.74869235,8.13550688 L1.74869235,23.0490291 Z"></path>
            </g>
        </g>
    </svg>